ISO-10303-21;
HEADER;
FILE_DESCRIPTION(('Frame Designer - simplified bar geometry','No T-slots or brackets'),'2;1');
FILE_NAME('frame','2026-10-04T00:00:00',(''),(''),'Frame Designer','','');
FILE_SCHEMA(('AUTOMOTIVE_DESIGN { 1 0 10303 214 1 1 1 1 }'));
ENDSEC;
DATA;
#1 = APPLICATION_CONTEXT('core data for automotive mechanical design process');
#2 = APPLICATION_PROTOCOL_DEFINITION('international standard','automotive_design',2000,#1);
#3 = PRODUCT_CONTEXT('',#1,'mechanical');
#4 = PRODUCT_DEFINITION_CONTEXT('part definition',#1,'design');
#5 = PRODUCT('table 1500x700x900','table 1500x700x900','',(#3));
#6 = PRODUCT_DEFINITION_FORMATION('','',#5);
#7 = PRODUCT_DEFINITION('design','',#6,#4);
#8 = PRODUCT_DEFINITION_SHAPE('','',#7);
#9 = ( LENGTH_UNIT() NAMED_UNIT(*) SI_UNIT(.MILLI.,.METRE.) );
#10 = ( NAMED_UNIT(*) PLANE_ANGLE_UNIT() SI_UNIT($,.RADIAN.) );
#11 = ( NAMED_UNIT(*) SI_UNIT($,.STERADIAN.) SOLID_ANGLE_UNIT() );
#12 = UNCERTAINTY_MEASURE_WITH_UNIT(LENGTH_MEASURE(1.E-07),#9,'distance_accuracy_value','Confusion accuracy of a planar surface');
#13 = ( GEOMETRIC_REPRESENTATION_CONTEXT(3) GLOBAL_UNCERTAINTY_ASSIGNED_CONTEXT((#12)) GLOBAL_UNIT_ASSIGNED_CONTEXT((#9,#10,#11)) REPRESENTATION_CONTEXT('','3D Space') );
#14 = DIRECTION('',(1.,0.,0.));
#15 = DIRECTION('',(-1.,0.,0.));
#16 = DIRECTION('',(0.,1.,0.));
#17 = DIRECTION('',(0.,-1.,0.));
#18 = DIRECTION('',(0.,0.,1.));
#19 = DIRECTION('',(0.,0.,-1.));
#20 = CARTESIAN_POINT('',(0.,0.,0.));
#21 = AXIS2_PLACEMENT_3D('',#20,#18,#14);
#22 = CARTESIAN_POINT('',(0.000000,0.000000,0.000000));
#23 = CARTESIAN_POINT('',(40.000000,0.000000,0.000000));
#24 = CARTESIAN_POINT('',(40.000000,40.000000,0.000000));
#25 = CARTESIAN_POINT('',(0.000000,40.000000,0.000000));
#26 = CARTESIAN_POINT('',(0.000000,0.000000,900.000000));
#27 = CARTESIAN_POINT('',(40.000000,0.000000,900.000000));
#28 = CARTESIAN_POINT('',(40.000000,40.000000,900.000000));
#29 = CARTESIAN_POINT('',(0.000000,40.000000,900.000000));
#30 = VERTEX_POINT('',#22);
#31 = VERTEX_POINT('',#23);
#32 = VERTEX_POINT('',#24);
#33 = VERTEX_POINT('',#25);
#34 = VERTEX_POINT('',#26);
#35 = VERTEX_POINT('',#27);
#36 = VERTEX_POINT('',#28);
#37 = VERTEX_POINT('',#29);
#38 = VECTOR('',#14,40.000000);
#39 = VECTOR('',#15,40.000000);
#40 = VECTOR('',#16,40.000000);
#41 = VECTOR('',#18,900.000000);
#42 = LINE('',#22,#38);
#43 = EDGE_CURVE('',#30,#31,#42,.T.);
#44 = LINE('',#23,#40);
#45 = EDGE_CURVE('',#31,#32,#44,.T.);
#46 = LINE('',#24,#39);
#47 = EDGE_CURVE('',#32,#33,#46,.T.);
#48 = LINE('',#22,#40);
#49 = EDGE_CURVE('',#30,#33,#48,.T.);
#50 = LINE('',#26,#38);
#51 = EDGE_CURVE('',#34,#35,#50,.T.);
#52 = LINE('',#27,#40);
#53 = EDGE_CURVE('',#35,#36,#52,.T.);
#54 = LINE('',#28,#39);
#55 = EDGE_CURVE('',#36,#37,#54,.T.);
#56 = LINE('',#26,#40);
#57 = EDGE_CURVE('',#34,#37,#56,.T.);
#58 = LINE('',#22,#41);
#59 = EDGE_CURVE('',#30,#34,#58,.T.);
#60 = LINE('',#23,#41);
#61 = EDGE_CURVE('',#31,#35,#60,.T.);
#62 = LINE('',#24,#41);
#63 = EDGE_CURVE('',#32,#36,#62,.T.);
#64 = LINE('',#25,#41);
#65 = EDGE_CURVE('',#33,#37,#64,.T.);
#66 = ORIENTED_EDGE('',*,*,#49,.T.);
#67 = ORIENTED_EDGE('',*,*,#47,.F.);
#68 = ORIENTED_EDGE('',*,*,#45,.F.);
#69 = ORIENTED_EDGE('',*,*,#43,.F.);
#70 = EDGE_LOOP('',(#66,#67,#68,#69));
#71 = FACE_OUTER_BOUND('',#70,.T.);
#72 = CARTESIAN_POINT('',(20.000000,20.000000,0.000000));
#73 = AXIS2_PLACEMENT_3D('',#72,#19,#14);
#74 = PLANE('',#73);
#75 = ADVANCED_FACE('',(#71),#74,.T.);
#76 = ORIENTED_EDGE('',*,*,#51,.T.);
#77 = ORIENTED_EDGE('',*,*,#53,.T.);
#78 = ORIENTED_EDGE('',*,*,#55,.T.);
#79 = ORIENTED_EDGE('',*,*,#57,.F.);
#80 = EDGE_LOOP('',(#76,#77,#78,#79));
#81 = FACE_OUTER_BOUND('',#80,.T.);
#82 = CARTESIAN_POINT('',(20.000000,20.000000,900.000000));
#83 = AXIS2_PLACEMENT_3D('',#82,#18,#14);
#84 = PLANE('',#83);
#85 = ADVANCED_FACE('',(#81),#84,.T.);
#86 = ORIENTED_EDGE('',*,*,#43,.T.);
#87 = ORIENTED_EDGE('',*,*,#61,.T.);
#88 = ORIENTED_EDGE('',*,*,#51,.F.);
#89 = ORIENTED_EDGE('',*,*,#59,.F.);
#90 = EDGE_LOOP('',(#86,#87,#88,#89));
#91 = FACE_OUTER_BOUND('',#90,.T.);
#92 = CARTESIAN_POINT('',(20.000000,0.000000,450.000000));
#93 = AXIS2_PLACEMENT_3D('',#92,#17,#14);
#94 = PLANE('',#93);
#95 = ADVANCED_FACE('',(#91),#94,.T.);
#96 = ORIENTED_EDGE('',*,*,#65,.T.);
#97 = ORIENTED_EDGE('',*,*,#55,.F.);
#98 = ORIENTED_EDGE('',*,*,#63,.F.);
#99 = ORIENTED_EDGE('',*,*,#47,.T.);
#100 = EDGE_LOOP('',(#96,#97,#98,#99));
#101 = FACE_OUTER_BOUND('',#100,.T.);
#102 = CARTESIAN_POINT('',(20.000000,40.000000,450.000000));
#103 = AXIS2_PLACEMENT_3D('',#102,#16,#14);
#104 = PLANE('',#103);
#105 = ADVANCED_FACE('',(#101),#104,.T.);
#106 = ORIENTED_EDGE('',*,*,#59,.T.);
#107 = ORIENTED_EDGE('',*,*,#57,.T.);
#108 = ORIENTED_EDGE('',*,*,#65,.F.);
#109 = ORIENTED_EDGE('',*,*,#49,.F.);
#110 = EDGE_LOOP('',(#106,#107,#108,#109));
#111 = FACE_OUTER_BOUND('',#110,.T.);
#112 = CARTESIAN_POINT('',(0.000000,20.000000,450.000000));
#113 = AXIS2_PLACEMENT_3D('',#112,#15,#16);
#114 = PLANE('',#113);
#115 = ADVANCED_FACE('',(#111),#114,.T.);
#116 = ORIENTED_EDGE('',*,*,#45,.T.);
#117 = ORIENTED_EDGE('',*,*,#63,.T.);
#118 = ORIENTED_EDGE('',*,*,#53,.F.);
#119 = ORIENTED_EDGE('',*,*,#61,.F.);
#120 = EDGE_LOOP('',(#116,#117,#118,#119));
#121 = FACE_OUTER_BOUND('',#120,.T.);
#122 = CARTESIAN_POINT('',(40.000000,20.000000,450.000000));
#123 = AXIS2_PLACEMENT_3D('',#122,#14,#16);
#124 = PLANE('',#123);
#125 = ADVANCED_FACE('',(#121),#124,.T.);
#126 = CLOSED_SHELL('',(#75,#85,#95,#105,#115,#125));
#127 = MANIFOLD_SOLID_BREP('leg 900',#126);
#128 = CARTESIAN_POINT('',(1460.000000,0.000000,0.000000));
#129 = CARTESIAN_POINT('',(1500.000000,0.000000,0.000000));
#130 = CARTESIAN_POINT('',(1500.000000,40.000000,0.000000));
#131 = CARTESIAN_POINT('',(1460.000000,40.000000,0.000000));
#132 = CARTESIAN_POINT('',(1460.000000,0.000000,900.000000));
#133 = CARTESIAN_POINT('',(1500.000000,0.000000,900.000000));
#134 = CARTESIAN_POINT('',(1500.000000,40.000000,900.000000));
#135 = CARTESIAN_POINT('',(1460.000000,40.000000,900.000000));
#136 = VERTEX_POINT('',#128);
#137 = VERTEX_POINT('',#129);
#138 = VERTEX_POINT('',#130);
#139 = VERTEX_POINT('',#131);
#140 = VERTEX_POINT('',#132);
#141 = VERTEX_POINT('',#133);
#142 = VERTEX_POINT('',#134);
#143 = VERTEX_POINT('',#135);
#144 = VECTOR('',#14,40.000000);
#145 = VECTOR('',#15,40.000000);
#146 = VECTOR('',#16,40.000000);
#147 = VECTOR('',#18,900.000000);
#148 = LINE('',#128,#144);
#149 = EDGE_CURVE('',#136,#137,#148,.T.);
#150 = LINE('',#129,#146);
#151 = EDGE_CURVE('',#137,#138,#150,.T.);
#152 = LINE('',#130,#145);
#153 = EDGE_CURVE('',#138,#139,#152,.T.);
#154 = LINE('',#128,#146);
#155 = EDGE_CURVE('',#136,#139,#154,.T.);
#156 = LINE('',#132,#144);
#157 = EDGE_CURVE('',#140,#141,#156,.T.);
#158 = LINE('',#133,#146);
#159 = EDGE_CURVE('',#141,#142,#158,.T.);
#160 = LINE('',#134,#145);
#161 = EDGE_CURVE('',#142,#143,#160,.T.);
#162 = LINE('',#132,#146);
#163 = EDGE_CURVE('',#140,#143,#162,.T.);
#164 = LINE('',#128,#147);
#165 = EDGE_CURVE('',#136,#140,#164,.T.);
#166 = LINE('',#129,#147);
#167 = EDGE_CURVE('',#137,#141,#166,.T.);
#168 = LINE('',#130,#147);
#169 = EDGE_CURVE('',#138,#142,#168,.T.);
#170 = LINE('',#131,#147);
#171 = EDGE_CURVE('',#139,#143,#170,.T.);
#172 = ORIENTED_EDGE('',*,*,#155,.T.);
#173 = ORIENTED_EDGE('',*,*,#153,.F.);
#174 = ORIENTED_EDGE('',*,*,#151,.F.);
#175 = ORIENTED_EDGE('',*,*,#149,.F.);
#176 = EDGE_LOOP('',(#172,#173,#174,#175));
#177 = FACE_OUTER_BOUND('',#176,.T.);
#178 = CARTESIAN_POINT('',(1480.000000,20.000000,0.000000));
#179 = AXIS2_PLACEMENT_3D('',#178,#19,#14);
#180 = PLANE('',#179);
#181 = ADVANCED_FACE('',(#177),#180,.T.);
#182 = ORIENTED_EDGE('',*,*,#157,.T.);
#183 = ORIENTED_EDGE('',*,*,#159,.T.);
#184 = ORIENTED_EDGE('',*,*,#161,.T.);
#185 = ORIENTED_EDGE('',*,*,#163,.F.);
#186 = EDGE_LOOP('',(#182,#183,#184,#185));
#187 = FACE_OUTER_BOUND('',#186,.T.);
#188 = CARTESIAN_POINT('',(1480.000000,20.000000,900.000000));
#189 = AXIS2_PLACEMENT_3D('',#188,#18,#14);
#190 = PLANE('',#189);
#191 = ADVANCED_FACE('',(#187),#190,.T.);
#192 = ORIENTED_EDGE('',*,*,#149,.T.);
#193 = ORIENTED_EDGE('',*,*,#167,.T.);
#194 = ORIENTED_EDGE('',*,*,#157,.F.);
#195 = ORIENTED_EDGE('',*,*,#165,.F.);
#196 = EDGE_LOOP('',(#192,#193,#194,#195));
#197 = FACE_OUTER_BOUND('',#196,.T.);
#198 = CARTESIAN_POINT('',(1480.000000,0.000000,450.000000));
#199 = AXIS2_PLACEMENT_3D('',#198,#17,#14);
#200 = PLANE('',#199);
#201 = ADVANCED_FACE('',(#197),#200,.T.);
#202 = ORIENTED_EDGE('',*,*,#171,.T.);
#203 = ORIENTED_EDGE('',*,*,#161,.F.);
#204 = ORIENTED_EDGE('',*,*,#169,.F.);
#205 = ORIENTED_EDGE('',*,*,#153,.T.);
#206 = EDGE_LOOP('',(#202,#203,#204,#205));
#207 = FACE_OUTER_BOUND('',#206,.T.);
#208 = CARTESIAN_POINT('',(1480.000000,40.000000,450.000000));
#209 = AXIS2_PLACEMENT_3D('',#208,#16,#14);
#210 = PLANE('',#209);
#211 = ADVANCED_FACE('',(#207),#210,.T.);
#212 = ORIENTED_EDGE('',*,*,#165,.T.);
#213 = ORIENTED_EDGE('',*,*,#163,.T.);
#214 = ORIENTED_EDGE('',*,*,#171,.F.);
#215 = ORIENTED_EDGE('',*,*,#155,.F.);
#216 = EDGE_LOOP('',(#212,#213,#214,#215));
#217 = FACE_OUTER_BOUND('',#216,.T.);
#218 = CARTESIAN_POINT('',(1460.000000,20.000000,450.000000));
#219 = AXIS2_PLACEMENT_3D('',#218,#15,#16);
#220 = PLANE('',#219);
#221 = ADVANCED_FACE('',(#217),#220,.T.);
#222 = ORIENTED_EDGE('',*,*,#151,.T.);
#223 = ORIENTED_EDGE('',*,*,#169,.T.);
#224 = ORIENTED_EDGE('',*,*,#159,.F.);
#225 = ORIENTED_EDGE('',*,*,#167,.F.);
#226 = EDGE_LOOP('',(#222,#223,#224,#225));
#227 = FACE_OUTER_BOUND('',#226,.T.);
#228 = CARTESIAN_POINT('',(1500.000000,20.000000,450.000000));
#229 = AXIS2_PLACEMENT_3D('',#228,#14,#16);
#230 = PLANE('',#229);
#231 = ADVANCED_FACE('',(#227),#230,.T.);
#232 = CLOSED_SHELL('',(#181,#191,#201,#211,#221,#231));
#233 = MANIFOLD_SOLID_BREP('leg 900',#232);
#234 = CARTESIAN_POINT('',(0.000000,660.000000,0.000000));
#235 = CARTESIAN_POINT('',(40.000000,660.000000,0.000000));
#236 = CARTESIAN_POINT('',(40.000000,700.000000,0.000000));
#237 = CARTESIAN_POINT('',(0.000000,700.000000,0.000000));
#238 = CARTESIAN_POINT('',(0.000000,660.000000,900.000000));
#239 = CARTESIAN_POINT('',(40.000000,660.000000,900.000000));
#240 = CARTESIAN_POINT('',(40.000000,700.000000,900.000000));
#241 = CARTESIAN_POINT('',(0.000000,700.000000,900.000000));
#242 = VERTEX_POINT('',#234);
#243 = VERTEX_POINT('',#235);
#244 = VERTEX_POINT('',#236);
#245 = VERTEX_POINT('',#237);
#246 = VERTEX_POINT('',#238);
#247 = VERTEX_POINT('',#239);
#248 = VERTEX_POINT('',#240);
#249 = VERTEX_POINT('',#241);
#250 = VECTOR('',#14,40.000000);
#251 = VECTOR('',#15,40.000000);
#252 = VECTOR('',#16,40.000000);
#253 = VECTOR('',#18,900.000000);
#254 = LINE('',#234,#250);
#255 = EDGE_CURVE('',#242,#243,#254,.T.);
#256 = LINE('',#235,#252);
#257 = EDGE_CURVE('',#243,#244,#256,.T.);
#258 = LINE('',#236,#251);
#259 = EDGE_CURVE('',#244,#245,#258,.T.);
#260 = LINE('',#234,#252);
#261 = EDGE_CURVE('',#242,#245,#260,.T.);
#262 = LINE('',#238,#250);
#263 = EDGE_CURVE('',#246,#247,#262,.T.);
#264 = LINE('',#239,#252);
#265 = EDGE_CURVE('',#247,#248,#264,.T.);
#266 = LINE('',#240,#251);
#267 = EDGE_CURVE('',#248,#249,#266,.T.);
#268 = LINE('',#238,#252);
#269 = EDGE_CURVE('',#246,#249,#268,.T.);
#270 = LINE('',#234,#253);
#271 = EDGE_CURVE('',#242,#246,#270,.T.);
#272 = LINE('',#235,#253);
#273 = EDGE_CURVE('',#243,#247,#272,.T.);
#274 = LINE('',#236,#253);
#275 = EDGE_CURVE('',#244,#248,#274,.T.);
#276 = LINE('',#237,#253);
#277 = EDGE_CURVE('',#245,#249,#276,.T.);
#278 = ORIENTED_EDGE('',*,*,#261,.T.);
#279 = ORIENTED_EDGE('',*,*,#259,.F.);
#280 = ORIENTED_EDGE('',*,*,#257,.F.);
#281 = ORIENTED_EDGE('',*,*,#255,.F.);
#282 = EDGE_LOOP('',(#278,#279,#280,#281));
#283 = FACE_OUTER_BOUND('',#282,.T.);
#284 = CARTESIAN_POINT('',(20.000000,680.000000,0.000000));
#285 = AXIS2_PLACEMENT_3D('',#284,#19,#14);
#286 = PLANE('',#285);
#287 = ADVANCED_FACE('',(#283),#286,.T.);
#288 = ORIENTED_EDGE('',*,*,#263,.T.);
#289 = ORIENTED_EDGE('',*,*,#265,.T.);
#290 = ORIENTED_EDGE('',*,*,#267,.T.);
#291 = ORIENTED_EDGE('',*,*,#269,.F.);
#292 = EDGE_LOOP('',(#288,#289,#290,#291));
#293 = FACE_OUTER_BOUND('',#292,.T.);
#294 = CARTESIAN_POINT('',(20.000000,680.000000,900.000000));
#295 = AXIS2_PLACEMENT_3D('',#294,#18,#14);
#296 = PLANE('',#295);
#297 = ADVANCED_FACE('',(#293),#296,.T.);
#298 = ORIENTED_EDGE('',*,*,#255,.T.);
#299 = ORIENTED_EDGE('',*,*,#273,.T.);
#300 = ORIENTED_EDGE('',*,*,#263,.F.);
#301 = ORIENTED_EDGE('',*,*,#271,.F.);
#302 = EDGE_LOOP('',(#298,#299,#300,#301));
#303 = FACE_OUTER_BOUND('',#302,.T.);
#304 = CARTESIAN_POINT('',(20.000000,660.000000,450.000000));
#305 = AXIS2_PLACEMENT_3D('',#304,#17,#14);
#306 = PLANE('',#305);
#307 = ADVANCED_FACE('',(#303),#306,.T.);
#308 = ORIENTED_EDGE('',*,*,#277,.T.);
#309 = ORIENTED_EDGE('',*,*,#267,.F.);
#310 = ORIENTED_EDGE('',*,*,#275,.F.);
#311 = ORIENTED_EDGE('',*,*,#259,.T.);
#312 = EDGE_LOOP('',(#308,#309,#310,#311));
#313 = FACE_OUTER_BOUND('',#312,.T.);
#314 = CARTESIAN_POINT('',(20.000000,700.000000,450.000000));
#315 = AXIS2_PLACEMENT_3D('',#314,#16,#14);
#316 = PLANE('',#315);
#317 = ADVANCED_FACE('',(#313),#316,.T.);
#318 = ORIENTED_EDGE('',*,*,#271,.T.);
#319 = ORIENTED_EDGE('',*,*,#269,.T.);
#320 = ORIENTED_EDGE('',*,*,#277,.F.);
#321 = ORIENTED_EDGE('',*,*,#261,.F.);
#322 = EDGE_LOOP('',(#318,#319,#320,#321));
#323 = FACE_OUTER_BOUND('',#322,.T.);
#324 = CARTESIAN_POINT('',(0.000000,680.000000,450.000000));
#325 = AXIS2_PLACEMENT_3D('',#324,#15,#16);
#326 = PLANE('',#325);
#327 = ADVANCED_FACE('',(#323),#326,.T.);
#328 = ORIENTED_EDGE('',*,*,#257,.T.);
#329 = ORIENTED_EDGE('',*,*,#275,.T.);
#330 = ORIENTED_EDGE('',*,*,#265,.F.);
#331 = ORIENTED_EDGE('',*,*,#273,.F.);
#332 = EDGE_LOOP('',(#328,#329,#330,#331));
#333 = FACE_OUTER_BOUND('',#332,.T.);
#334 = CARTESIAN_POINT('',(40.000000,680.000000,450.000000));
#335 = AXIS2_PLACEMENT_3D('',#334,#14,#16);
#336 = PLANE('',#335);
#337 = ADVANCED_FACE('',(#333),#336,.T.);
#338 = CLOSED_SHELL('',(#287,#297,#307,#317,#327,#337));
#339 = MANIFOLD_SOLID_BREP('leg 900',#338);
#340 = CARTESIAN_POINT('',(1460.000000,660.000000,0.000000));
#341 = CARTESIAN_POINT('',(1500.000000,660.000000,0.000000));
#342 = CARTESIAN_POINT('',(1500.000000,700.000000,0.000000));
#343 = CARTESIAN_POINT('',(1460.000000,700.000000,0.000000));
#344 = CARTESIAN_POINT('',(1460.000000,660.000000,900.000000));
#345 = CARTESIAN_POINT('',(1500.000000,660.000000,900.000000));
#346 = CARTESIAN_POINT('',(1500.000000,700.000000,900.000000));
#347 = CARTESIAN_POINT('',(1460.000000,700.000000,900.000000));
#348 = VERTEX_POINT('',#340);
#349 = VERTEX_POINT('',#341);
#350 = VERTEX_POINT('',#342);
#351 = VERTEX_POINT('',#343);
#352 = VERTEX_POINT('',#344);
#353 = VERTEX_POINT('',#345);
#354 = VERTEX_POINT('',#346);
#355 = VERTEX_POINT('',#347);
#356 = VECTOR('',#14,40.000000);
#357 = VECTOR('',#15,40.000000);
#358 = VECTOR('',#16,40.000000);
#359 = VECTOR('',#18,900.000000);
#360 = LINE('',#340,#356);
#361 = EDGE_CURVE('',#348,#349,#360,.T.);
#362 = LINE('',#341,#358);
#363 = EDGE_CURVE('',#349,#350,#362,.T.);
#364 = LINE('',#342,#357);
#365 = EDGE_CURVE('',#350,#351,#364,.T.);
#366 = LINE('',#340,#358);
#367 = EDGE_CURVE('',#348,#351,#366,.T.);
#368 = LINE('',#344,#356);
#369 = EDGE_CURVE('',#352,#353,#368,.T.);
#370 = LINE('',#345,#358);
#371 = EDGE_CURVE('',#353,#354,#370,.T.);
#372 = LINE('',#346,#357);
#373 = EDGE_CURVE('',#354,#355,#372,.T.);
#374 = LINE('',#344,#358);
#375 = EDGE_CURVE('',#352,#355,#374,.T.);
#376 = LINE('',#340,#359);
#377 = EDGE_CURVE('',#348,#352,#376,.T.);
#378 = LINE('',#341,#359);
#379 = EDGE_CURVE('',#349,#353,#378,.T.);
#380 = LINE('',#342,#359);
#381 = EDGE_CURVE('',#350,#354,#380,.T.);
#382 = LINE('',#343,#359);
#383 = EDGE_CURVE('',#351,#355,#382,.T.);
#384 = ORIENTED_EDGE('',*,*,#367,.T.);
#385 = ORIENTED_EDGE('',*,*,#365,.F.);
#386 = ORIENTED_EDGE('',*,*,#363,.F.);
#387 = ORIENTED_EDGE('',*,*,#361,.F.);
#388 = EDGE_LOOP('',(#384,#385,#386,#387));
#389 = FACE_OUTER_BOUND('',#388,.T.);
#390 = CARTESIAN_POINT('',(1480.000000,680.000000,0.000000));
#391 = AXIS2_PLACEMENT_3D('',#390,#19,#14);
#392 = PLANE('',#391);
#393 = ADVANCED_FACE('',(#389),#392,.T.);
#394 = ORIENTED_EDGE('',*,*,#369,.T.);
#395 = ORIENTED_EDGE('',*,*,#371,.T.);
#396 = ORIENTED_EDGE('',*,*,#373,.T.);
#397 = ORIENTED_EDGE('',*,*,#375,.F.);
#398 = EDGE_LOOP('',(#394,#395,#396,#397));
#399 = FACE_OUTER_BOUND('',#398,.T.);
#400 = CARTESIAN_POINT('',(1480.000000,680.000000,900.000000));
#401 = AXIS2_PLACEMENT_3D('',#400,#18,#14);
#402 = PLANE('',#401);
#403 = ADVANCED_FACE('',(#399),#402,.T.);
#404 = ORIENTED_EDGE('',*,*,#361,.T.);
#405 = ORIENTED_EDGE('',*,*,#379,.T.);
#406 = ORIENTED_EDGE('',*,*,#369,.F.);
#407 = ORIENTED_EDGE('',*,*,#377,.F.);
#408 = EDGE_LOOP('',(#404,#405,#406,#407));
#409 = FACE_OUTER_BOUND('',#408,.T.);
#410 = CARTESIAN_POINT('',(1480.000000,660.000000,450.000000));
#411 = AXIS2_PLACEMENT_3D('',#410,#17,#14);
#412 = PLANE('',#411);
#413 = ADVANCED_FACE('',(#409),#412,.T.);
#414 = ORIENTED_EDGE('',*,*,#383,.T.);
#415 = ORIENTED_EDGE('',*,*,#373,.F.);
#416 = ORIENTED_EDGE('',*,*,#381,.F.);
#417 = ORIENTED_EDGE('',*,*,#365,.T.);
#418 = EDGE_LOOP('',(#414,#415,#416,#417));
#419 = FACE_OUTER_BOUND('',#418,.T.);
#420 = CARTESIAN_POINT('',(1480.000000,700.000000,450.000000));
#421 = AXIS2_PLACEMENT_3D('',#420,#16,#14);
#422 = PLANE('',#421);
#423 = ADVANCED_FACE('',(#419),#422,.T.);
#424 = ORIENTED_EDGE('',*,*,#377,.T.);
#425 = ORIENTED_EDGE('',*,*,#375,.T.);
#426 = ORIENTED_EDGE('',*,*,#383,.F.);
#427 = ORIENTED_EDGE('',*,*,#367,.F.);
#428 = EDGE_LOOP('',(#424,#425,#426,#427));
#429 = FACE_OUTER_BOUND('',#428,.T.);
#430 = CARTESIAN_POINT('',(1460.000000,680.000000,450.000000));
#431 = AXIS2_PLACEMENT_3D('',#430,#15,#16);
#432 = PLANE('',#431);
#433 = ADVANCED_FACE('',(#429),#432,.T.);
#434 = ORIENTED_EDGE('',*,*,#363,.T.);
#435 = ORIENTED_EDGE('',*,*,#381,.T.);
#436 = ORIENTED_EDGE('',*,*,#371,.F.);
#437 = ORIENTED_EDGE('',*,*,#379,.F.);
#438 = EDGE_LOOP('',(#434,#435,#436,#437));
#439 = FACE_OUTER_BOUND('',#438,.T.);
#440 = CARTESIAN_POINT('',(1500.000000,680.000000,450.000000));
#441 = AXIS2_PLACEMENT_3D('',#440,#14,#16);
#442 = PLANE('',#441);
#443 = ADVANCED_FACE('',(#439),#442,.T.);
#444 = CLOSED_SHELL('',(#393,#403,#413,#423,#433,#443));
#445 = MANIFOLD_SOLID_BREP('leg 900',#444);
#446 = CARTESIAN_POINT('',(40.000000,0.000000,860.000000));
#447 = CARTESIAN_POINT('',(1460.000000,0.000000,860.000000));
#448 = CARTESIAN_POINT('',(1460.000000,40.000000,860.000000));
#449 = CARTESIAN_POINT('',(40.000000,40.000000,860.000000));
#450 = CARTESIAN_POINT('',(40.000000,0.000000,900.000000));
#451 = CARTESIAN_POINT('',(1460.000000,0.000000,900.000000));
#452 = CARTESIAN_POINT('',(1460.000000,40.000000,900.000000));
#453 = CARTESIAN_POINT('',(40.000000,40.000000,900.000000));
#454 = VERTEX_POINT('',#446);
#455 = VERTEX_POINT('',#447);
#456 = VERTEX_POINT('',#448);
#457 = VERTEX_POINT('',#449);
#458 = VERTEX_POINT('',#450);
#459 = VERTEX_POINT('',#451);
#460 = VERTEX_POINT('',#452);
#461 = VERTEX_POINT('',#453);
#462 = VECTOR('',#14,1420.000000);
#463 = VECTOR('',#15,1420.000000);
#464 = VECTOR('',#16,40.000000);
#465 = VECTOR('',#18,40.000000);
#466 = LINE('',#446,#462);
#467 = EDGE_CURVE('',#454,#455,#466,.T.);
#468 = LINE('',#447,#464);
#469 = EDGE_CURVE('',#455,#456,#468,.T.);
#470 = LINE('',#448,#463);
#471 = EDGE_CURVE('',#456,#457,#470,.T.);
#472 = LINE('',#446,#464);
#473 = EDGE_CURVE('',#454,#457,#472,.T.);
#474 = LINE('',#450,#462);
#475 = EDGE_CURVE('',#458,#459,#474,.T.);
#476 = LINE('',#451,#464);
#477 = EDGE_CURVE('',#459,#460,#476,.T.);
#478 = LINE('',#452,#463);
#479 = EDGE_CURVE('',#460,#461,#478,.T.);
#480 = LINE('',#450,#464);
#481 = EDGE_CURVE('',#458,#461,#480,.T.);
#482 = LINE('',#446,#465);
#483 = EDGE_CURVE('',#454,#458,#482,.T.);
#484 = LINE('',#447,#465);
#485 = EDGE_CURVE('',#455,#459,#484,.T.);
#486 = LINE('',#448,#465);
#487 = EDGE_CURVE('',#456,#460,#486,.T.);
#488 = LINE('',#449,#465);
#489 = EDGE_CURVE('',#457,#461,#488,.T.);
#490 = ORIENTED_EDGE('',*,*,#473,.T.);
#491 = ORIENTED_EDGE('',*,*,#471,.F.);
#492 = ORIENTED_EDGE('',*,*,#469,.F.);
#493 = ORIENTED_EDGE('',*,*,#467,.F.);
#494 = EDGE_LOOP('',(#490,#491,#492,#493));
#495 = FACE_OUTER_BOUND('',#494,.T.);
#496 = CARTESIAN_POINT('',(750.000000,20.000000,860.000000));
#497 = AXIS2_PLACEMENT_3D('',#496,#19,#14);
#498 = PLANE('',#497);
#499 = ADVANCED_FACE('',(#495),#498,.T.);
#500 = ORIENTED_EDGE('',*,*,#475,.T.);
#501 = ORIENTED_EDGE('',*,*,#477,.T.);
#502 = ORIENTED_EDGE('',*,*,#479,.T.);
#503 = ORIENTED_EDGE('',*,*,#481,.F.);
#504 = EDGE_LOOP('',(#500,#501,#502,#503));
#505 = FACE_OUTER_BOUND('',#504,.T.);
#506 = CARTESIAN_POINT('',(750.000000,20.000000,900.000000));
#507 = AXIS2_PLACEMENT_3D('',#506,#18,#14);
#508 = PLANE('',#507);
#509 = ADVANCED_FACE('',(#505),#508,.T.);
#510 = ORIENTED_EDGE('',*,*,#467,.T.);
#511 = ORIENTED_EDGE('',*,*,#485,.T.);
#512 = ORIENTED_EDGE('',*,*,#475,.F.);
#513 = ORIENTED_EDGE('',*,*,#483,.F.);
#514 = EDGE_LOOP('',(#510,#511,#512,#513));
#515 = FACE_OUTER_BOUND('',#514,.T.);
#516 = CARTESIAN_POINT('',(750.000000,0.000000,880.000000));
#517 = AXIS2_PLACEMENT_3D('',#516,#17,#14);
#518 = PLANE('',#517);
#519 = ADVANCED_FACE('',(#515),#518,.T.);
#520 = ORIENTED_EDGE('',*,*,#489,.T.);
#521 = ORIENTED_EDGE('',*,*,#479,.F.);
#522 = ORIENTED_EDGE('',*,*,#487,.F.);
#523 = ORIENTED_EDGE('',*,*,#471,.T.);
#524 = EDGE_LOOP('',(#520,#521,#522,#523));
#525 = FACE_OUTER_BOUND('',#524,.T.);
#526 = CARTESIAN_POINT('',(750.000000,40.000000,880.000000));
#527 = AXIS2_PLACEMENT_3D('',#526,#16,#14);
#528 = PLANE('',#527);
#529 = ADVANCED_FACE('',(#525),#528,.T.);
#530 = ORIENTED_EDGE('',*,*,#483,.T.);
#531 = ORIENTED_EDGE('',*,*,#481,.T.);
#532 = ORIENTED_EDGE('',*,*,#489,.F.);
#533 = ORIENTED_EDGE('',*,*,#473,.F.);
#534 = EDGE_LOOP('',(#530,#531,#532,#533));
#535 = FACE_OUTER_BOUND('',#534,.T.);
#536 = CARTESIAN_POINT('',(40.000000,20.000000,880.000000));
#537 = AXIS2_PLACEMENT_3D('',#536,#15,#16);
#538 = PLANE('',#537);
#539 = ADVANCED_FACE('',(#535),#538,.T.);
#540 = ORIENTED_EDGE('',*,*,#469,.T.);
#541 = ORIENTED_EDGE('',*,*,#487,.T.);
#542 = ORIENTED_EDGE('',*,*,#477,.F.);
#543 = ORIENTED_EDGE('',*,*,#485,.F.);
#544 = EDGE_LOOP('',(#540,#541,#542,#543));
#545 = FACE_OUTER_BOUND('',#544,.T.);
#546 = CARTESIAN_POINT('',(1460.000000,20.000000,880.000000));
#547 = AXIS2_PLACEMENT_3D('',#546,#14,#16);
#548 = PLANE('',#547);
#549 = ADVANCED_FACE('',(#545),#548,.T.);
#550 = CLOSED_SHELL('',(#499,#509,#519,#529,#539,#549));
#551 = MANIFOLD_SOLID_BREP('top rail width 1420',#550);
#552 = CARTESIAN_POINT('',(40.000000,660.000000,860.000000));
#553 = CARTESIAN_POINT('',(1460.000000,660.000000,860.000000));
#554 = CARTESIAN_POINT('',(1460.000000,700.000000,860.000000));
#555 = CARTESIAN_POINT('',(40.000000,700.000000,860.000000));
#556 = CARTESIAN_POINT('',(40.000000,660.000000,900.000000));
#557 = CARTESIAN_POINT('',(1460.000000,660.000000,900.000000));
#558 = CARTESIAN_POINT('',(1460.000000,700.000000,900.000000));
#559 = CARTESIAN_POINT('',(40.000000,700.000000,900.000000));
#560 = VERTEX_POINT('',#552);
#561 = VERTEX_POINT('',#553);
#562 = VERTEX_POINT('',#554);
#563 = VERTEX_POINT('',#555);
#564 = VERTEX_POINT('',#556);
#565 = VERTEX_POINT('',#557);
#566 = VERTEX_POINT('',#558);
#567 = VERTEX_POINT('',#559);
#568 = VECTOR('',#14,1420.000000);
#569 = VECTOR('',#15,1420.000000);
#570 = VECTOR('',#16,40.000000);
#571 = VECTOR('',#18,40.000000);
#572 = LINE('',#552,#568);
#573 = EDGE_CURVE('',#560,#561,#572,.T.);
#574 = LINE('',#553,#570);
#575 = EDGE_CURVE('',#561,#562,#574,.T.);
#576 = LINE('',#554,#569);
#577 = EDGE_CURVE('',#562,#563,#576,.T.);
#578 = LINE('',#552,#570);
#579 = EDGE_CURVE('',#560,#563,#578,.T.);
#580 = LINE('',#556,#568);
#581 = EDGE_CURVE('',#564,#565,#580,.T.);
#582 = LINE('',#557,#570);
#583 = EDGE_CURVE('',#565,#566,#582,.T.);
#584 = LINE('',#558,#569);
#585 = EDGE_CURVE('',#566,#567,#584,.T.);
#586 = LINE('',#556,#570);
#587 = EDGE_CURVE('',#564,#567,#586,.T.);
#588 = LINE('',#552,#571);
#589 = EDGE_CURVE('',#560,#564,#588,.T.);
#590 = LINE('',#553,#571);
#591 = EDGE_CURVE('',#561,#565,#590,.T.);
#592 = LINE('',#554,#571);
#593 = EDGE_CURVE('',#562,#566,#592,.T.);
#594 = LINE('',#555,#571);
#595 = EDGE_CURVE('',#563,#567,#594,.T.);
#596 = ORIENTED_EDGE('',*,*,#579,.T.);
#597 = ORIENTED_EDGE('',*,*,#577,.F.);
#598 = ORIENTED_EDGE('',*,*,#575,.F.);
#599 = ORIENTED_EDGE('',*,*,#573,.F.);
#600 = EDGE_LOOP('',(#596,#597,#598,#599));
#601 = FACE_OUTER_BOUND('',#600,.T.);
#602 = CARTESIAN_POINT('',(750.000000,680.000000,860.000000));
#603 = AXIS2_PLACEMENT_3D('',#602,#19,#14);
#604 = PLANE('',#603);
#605 = ADVANCED_FACE('',(#601),#604,.T.);
#606 = ORIENTED_EDGE('',*,*,#581,.T.);
#607 = ORIENTED_EDGE('',*,*,#583,.T.);
#608 = ORIENTED_EDGE('',*,*,#585,.T.);
#609 = ORIENTED_EDGE('',*,*,#587,.F.);
#610 = EDGE_LOOP('',(#606,#607,#608,#609));
#611 = FACE_OUTER_BOUND('',#610,.T.);
#612 = CARTESIAN_POINT('',(750.000000,680.000000,900.000000));
#613 = AXIS2_PLACEMENT_3D('',#612,#18,#14);
#614 = PLANE('',#613);
#615 = ADVANCED_FACE('',(#611),#614,.T.);
#616 = ORIENTED_EDGE('',*,*,#573,.T.);
#617 = ORIENTED_EDGE('',*,*,#591,.T.);
#618 = ORIENTED_EDGE('',*,*,#581,.F.);
#619 = ORIENTED_EDGE('',*,*,#589,.F.);
#620 = EDGE_LOOP('',(#616,#617,#618,#619));
#621 = FACE_OUTER_BOUND('',#620,.T.);
#622 = CARTESIAN_POINT('',(750.000000,660.000000,880.000000));
#623 = AXIS2_PLACEMENT_3D('',#622,#17,#14);
#624 = PLANE('',#623);
#625 = ADVANCED_FACE('',(#621),#624,.T.);
#626 = ORIENTED_EDGE('',*,*,#595,.T.);
#627 = ORIENTED_EDGE('',*,*,#585,.F.);
#628 = ORIENTED_EDGE('',*,*,#593,.F.);
#629 = ORIENTED_EDGE('',*,*,#577,.T.);
#630 = EDGE_LOOP('',(#626,#627,#628,#629));
#631 = FACE_OUTER_BOUND('',#630,.T.);
#632 = CARTESIAN_POINT('',(750.000000,700.000000,880.000000));
#633 = AXIS2_PLACEMENT_3D('',#632,#16,#14);
#634 = PLANE('',#633);
#635 = ADVANCED_FACE('',(#631),#634,.T.);
#636 = ORIENTED_EDGE('',*,*,#589,.T.);
#637 = ORIENTED_EDGE('',*,*,#587,.T.);
#638 = ORIENTED_EDGE('',*,*,#595,.F.);
#639 = ORIENTED_EDGE('',*,*,#579,.F.);
#640 = EDGE_LOOP('',(#636,#637,#638,#639));
#641 = FACE_OUTER_BOUND('',#640,.T.);
#642 = CARTESIAN_POINT('',(40.000000,680.000000,880.000000));
#643 = AXIS2_PLACEMENT_3D('',#642,#15,#16);
#644 = PLANE('',#643);
#645 = ADVANCED_FACE('',(#641),#644,.T.);
#646 = ORIENTED_EDGE('',*,*,#575,.T.);
#647 = ORIENTED_EDGE('',*,*,#593,.T.);
#648 = ORIENTED_EDGE('',*,*,#583,.F.);
#649 = ORIENTED_EDGE('',*,*,#591,.F.);
#650 = EDGE_LOOP('',(#646,#647,#648,#649));
#651 = FACE_OUTER_BOUND('',#650,.T.);
#652 = CARTESIAN_POINT('',(1460.000000,680.000000,880.000000));
#653 = AXIS2_PLACEMENT_3D('',#652,#14,#16);
#654 = PLANE('',#653);
#655 = ADVANCED_FACE('',(#651),#654,.T.);
#656 = CLOSED_SHELL('',(#605,#615,#625,#635,#645,#655));
#657 = MANIFOLD_SOLID_BREP('top rail width 1420',#656);
#658 = CARTESIAN_POINT('',(0.000000,40.000000,860.000000));
#659 = CARTESIAN_POINT('',(40.000000,40.000000,860.000000));
#660 = CARTESIAN_POINT('',(40.000000,660.000000,860.000000));
#661 = CARTESIAN_POINT('',(0.000000,660.000000,860.000000));
#662 = CARTESIAN_POINT('',(0.000000,40.000000,900.000000));
#663 = CARTESIAN_POINT('',(40.000000,40.000000,900.000000));
#664 = CARTESIAN_POINT('',(40.000000,660.000000,900.000000));
#665 = CARTESIAN_POINT('',(0.000000,660.000000,900.000000));
#666 = VERTEX_POINT('',#658);
#667 = VERTEX_POINT('',#659);
#668 = VERTEX_POINT('',#660);
#669 = VERTEX_POINT('',#661);
#670 = VERTEX_POINT('',#662);
#671 = VERTEX_POINT('',#663);
#672 = VERTEX_POINT('',#664);
#673 = VERTEX_POINT('',#665);
#674 = VECTOR('',#14,40.000000);
#675 = VECTOR('',#15,40.000000);
#676 = VECTOR('',#16,620.000000);
#677 = VECTOR('',#18,40.000000);
#678 = LINE('',#658,#674);
#679 = EDGE_CURVE('',#666,#667,#678,.T.);
#680 = LINE('',#659,#676);
#681 = EDGE_CURVE('',#667,#668,#680,.T.);
#682 = LINE('',#660,#675);
#683 = EDGE_CURVE('',#668,#669,#682,.T.);
#684 = LINE('',#658,#676);
#685 = EDGE_CURVE('',#666,#669,#684,.T.);
#686 = LINE('',#662,#674);
#687 = EDGE_CURVE('',#670,#671,#686,.T.);
#688 = LINE('',#663,#676);
#689 = EDGE_CURVE('',#671,#672,#688,.T.);
#690 = LINE('',#664,#675);
#691 = EDGE_CURVE('',#672,#673,#690,.T.);
#692 = LINE('',#662,#676);
#693 = EDGE_CURVE('',#670,#673,#692,.T.);
#694 = LINE('',#658,#677);
#695 = EDGE_CURVE('',#666,#670,#694,.T.);
#696 = LINE('',#659,#677);
#697 = EDGE_CURVE('',#667,#671,#696,.T.);
#698 = LINE('',#660,#677);
#699 = EDGE_CURVE('',#668,#672,#698,.T.);
#700 = LINE('',#661,#677);
#701 = EDGE_CURVE('',#669,#673,#700,.T.);
#702 = ORIENTED_EDGE('',*,*,#685,.T.);
#703 = ORIENTED_EDGE('',*,*,#683,.F.);
#704 = ORIENTED_EDGE('',*,*,#681,.F.);
#705 = ORIENTED_EDGE('',*,*,#679,.F.);
#706 = EDGE_LOOP('',(#702,#703,#704,#705));
#707 = FACE_OUTER_BOUND('',#706,.T.);
#708 = CARTESIAN_POINT('',(20.000000,350.000000,860.000000));
#709 = AXIS2_PLACEMENT_3D('',#708,#19,#14);
#710 = PLANE('',#709);
#711 = ADVANCED_FACE('',(#707),#710,.T.);
#712 = ORIENTED_EDGE('',*,*,#687,.T.);
#713 = ORIENTED_EDGE('',*,*,#689,.T.);
#714 = ORIENTED_EDGE('',*,*,#691,.T.);
#715 = ORIENTED_EDGE('',*,*,#693,.F.);
#716 = EDGE_LOOP('',(#712,#713,#714,#715));
#717 = FACE_OUTER_BOUND('',#716,.T.);
#718 = CARTESIAN_POINT('',(20.000000,350.000000,900.000000));
#719 = AXIS2_PLACEMENT_3D('',#718,#18,#14);
#720 = PLANE('',#719);
#721 = ADVANCED_FACE('',(#717),#720,.T.);
#722 = ORIENTED_EDGE('',*,*,#679,.T.);
#723 = ORIENTED_EDGE('',*,*,#697,.T.);
#724 = ORIENTED_EDGE('',*,*,#687,.F.);
#725 = ORIENTED_EDGE('',*,*,#695,.F.);
#726 = EDGE_LOOP('',(#722,#723,#724,#725));
#727 = FACE_OUTER_BOUND('',#726,.T.);
#728 = CARTESIAN_POINT('',(20.000000,40.000000,880.000000));
#729 = AXIS2_PLACEMENT_3D('',#728,#17,#14);
#730 = PLANE('',#729);
#731 = ADVANCED_FACE('',(#727),#730,.T.);
#732 = ORIENTED_EDGE('',*,*,#701,.T.);
#733 = ORIENTED_EDGE('',*,*,#691,.F.);
#734 = ORIENTED_EDGE('',*,*,#699,.F.);
#735 = ORIENTED_EDGE('',*,*,#683,.T.);
#736 = EDGE_LOOP('',(#732,#733,#734,#735));
#737 = FACE_OUTER_BOUND('',#736,.T.);
#738 = CARTESIAN_POINT('',(20.000000,660.000000,880.000000));
#739 = AXIS2_PLACEMENT_3D('',#738,#16,#14);
#740 = PLANE('',#739);
#741 = ADVANCED_FACE('',(#737),#740,.T.);
#742 = ORIENTED_EDGE('',*,*,#695,.T.);
#743 = ORIENTED_EDGE('',*,*,#693,.T.);
#744 = ORIENTED_EDGE('',*,*,#701,.F.);
#745 = ORIENTED_EDGE('',*,*,#685,.F.);
#746 = EDGE_LOOP('',(#742,#743,#744,#745));
#747 = FACE_OUTER_BOUND('',#746,.T.);
#748 = CARTESIAN_POINT('',(0.000000,350.000000,880.000000));
#749 = AXIS2_PLACEMENT_3D('',#748,#15,#16);
#750 = PLANE('',#749);
#751 = ADVANCED_FACE('',(#747),#750,.T.);
#752 = ORIENTED_EDGE('',*,*,#681,.T.);
#753 = ORIENTED_EDGE('',*,*,#699,.T.);
#754 = ORIENTED_EDGE('',*,*,#689,.F.);
#755 = ORIENTED_EDGE('',*,*,#697,.F.);
#756 = EDGE_LOOP('',(#752,#753,#754,#755));
#757 = FACE_OUTER_BOUND('',#756,.T.);
#758 = CARTESIAN_POINT('',(40.000000,350.000000,880.000000));
#759 = AXIS2_PLACEMENT_3D('',#758,#14,#16);
#760 = PLANE('',#759);
#761 = ADVANCED_FACE('',(#757),#760,.T.);
#762 = CLOSED_SHELL('',(#711,#721,#731,#741,#751,#761));
#763 = MANIFOLD_SOLID_BREP('top rail depth 620',#762);
#764 = CARTESIAN_POINT('',(1460.000000,40.000000,860.000000));
#765 = CARTESIAN_POINT('',(1500.000000,40.000000,860.000000));
#766 = CARTESIAN_POINT('',(1500.000000,660.000000,860.000000));
#767 = CARTESIAN_POINT('',(1460.000000,660.000000,860.000000));
#768 = CARTESIAN_POINT('',(1460.000000,40.000000,900.000000));
#769 = CARTESIAN_POINT('',(1500.000000,40.000000,900.000000));
#770 = CARTESIAN_POINT('',(1500.000000,660.000000,900.000000));
#771 = CARTESIAN_POINT('',(1460.000000,660.000000,900.000000));
#772 = VERTEX_POINT('',#764);
#773 = VERTEX_POINT('',#765);
#774 = VERTEX_POINT('',#766);
#775 = VERTEX_POINT('',#767);
#776 = VERTEX_POINT('',#768);
#777 = VERTEX_POINT('',#769);
#778 = VERTEX_POINT('',#770);
#779 = VERTEX_POINT('',#771);
#780 = VECTOR('',#14,40.000000);
#781 = VECTOR('',#15,40.000000);
#782 = VECTOR('',#16,620.000000);
#783 = VECTOR('',#18,40.000000);
#784 = LINE('',#764,#780);
#785 = EDGE_CURVE('',#772,#773,#784,.T.);
#786 = LINE('',#765,#782);
#787 = EDGE_CURVE('',#773,#774,#786,.T.);
#788 = LINE('',#766,#781);
#789 = EDGE_CURVE('',#774,#775,#788,.T.);
#790 = LINE('',#764,#782);
#791 = EDGE_CURVE('',#772,#775,#790,.T.);
#792 = LINE('',#768,#780);
#793 = EDGE_CURVE('',#776,#777,#792,.T.);
#794 = LINE('',#769,#782);
#795 = EDGE_CURVE('',#777,#778,#794,.T.);
#796 = LINE('',#770,#781);
#797 = EDGE_CURVE('',#778,#779,#796,.T.);
#798 = LINE('',#768,#782);
#799 = EDGE_CURVE('',#776,#779,#798,.T.);
#800 = LINE('',#764,#783);
#801 = EDGE_CURVE('',#772,#776,#800,.T.);
#802 = LINE('',#765,#783);
#803 = EDGE_CURVE('',#773,#777,#802,.T.);
#804 = LINE('',#766,#783);
#805 = EDGE_CURVE('',#774,#778,#804,.T.);
#806 = LINE('',#767,#783);
#807 = EDGE_CURVE('',#775,#779,#806,.T.);
#808 = ORIENTED_EDGE('',*,*,#791,.T.);
#809 = ORIENTED_EDGE('',*,*,#789,.F.);
#810 = ORIENTED_EDGE('',*,*,#787,.F.);
#811 = ORIENTED_EDGE('',*,*,#785,.F.);
#812 = EDGE_LOOP('',(#808,#809,#810,#811));
#813 = FACE_OUTER_BOUND('',#812,.T.);
#814 = CARTESIAN_POINT('',(1480.000000,350.000000,860.000000));
#815 = AXIS2_PLACEMENT_3D('',#814,#19,#14);
#816 = PLANE('',#815);
#817 = ADVANCED_FACE('',(#813),#816,.T.);
#818 = ORIENTED_EDGE('',*,*,#793,.T.);
#819 = ORIENTED_EDGE('',*,*,#795,.T.);
#820 = ORIENTED_EDGE('',*,*,#797,.T.);
#821 = ORIENTED_EDGE('',*,*,#799,.F.);
#822 = EDGE_LOOP('',(#818,#819,#820,#821));
#823 = FACE_OUTER_BOUND('',#822,.T.);
#824 = CARTESIAN_POINT('',(1480.000000,350.000000,900.000000));
#825 = AXIS2_PLACEMENT_3D('',#824,#18,#14);
#826 = PLANE('',#825);
#827 = ADVANCED_FACE('',(#823),#826,.T.);
#828 = ORIENTED_EDGE('',*,*,#785,.T.);
#829 = ORIENTED_EDGE('',*,*,#803,.T.);
#830 = ORIENTED_EDGE('',*,*,#793,.F.);
#831 = ORIENTED_EDGE('',*,*,#801,.F.);
#832 = EDGE_LOOP('',(#828,#829,#830,#831));
#833 = FACE_OUTER_BOUND('',#832,.T.);
#834 = CARTESIAN_POINT('',(1480.000000,40.000000,880.000000));
#835 = AXIS2_PLACEMENT_3D('',#834,#17,#14);
#836 = PLANE('',#835);
#837 = ADVANCED_FACE('',(#833),#836,.T.);
#838 = ORIENTED_EDGE('',*,*,#807,.T.);
#839 = ORIENTED_EDGE('',*,*,#797,.F.);
#840 = ORIENTED_EDGE('',*,*,#805,.F.);
#841 = ORIENTED_EDGE('',*,*,#789,.T.);
#842 = EDGE_LOOP('',(#838,#839,#840,#841));
#843 = FACE_OUTER_BOUND('',#842,.T.);
#844 = CARTESIAN_POINT('',(1480.000000,660.000000,880.000000));
#845 = AXIS2_PLACEMENT_3D('',#844,#16,#14);
#846 = PLANE('',#845);
#847 = ADVANCED_FACE('',(#843),#846,.T.);
#848 = ORIENTED_EDGE('',*,*,#801,.T.);
#849 = ORIENTED_EDGE('',*,*,#799,.T.);
#850 = ORIENTED_EDGE('',*,*,#807,.F.);
#851 = ORIENTED_EDGE('',*,*,#791,.F.);
#852 = EDGE_LOOP('',(#848,#849,#850,#851));
#853 = FACE_OUTER_BOUND('',#852,.T.);
#854 = CARTESIAN_POINT('',(1460.000000,350.000000,880.000000));
#855 = AXIS2_PLACEMENT_3D('',#854,#15,#16);
#856 = PLANE('',#855);
#857 = ADVANCED_FACE('',(#853),#856,.T.);
#858 = ORIENTED_EDGE('',*,*,#787,.T.);
#859 = ORIENTED_EDGE('',*,*,#805,.T.);
#860 = ORIENTED_EDGE('',*,*,#795,.F.);
#861 = ORIENTED_EDGE('',*,*,#803,.F.);
#862 = EDGE_LOOP('',(#858,#859,#860,#861));
#863 = FACE_OUTER_BOUND('',#862,.T.);
#864 = CARTESIAN_POINT('',(1500.000000,350.000000,880.000000));
#865 = AXIS2_PLACEMENT_3D('',#864,#14,#16);
#866 = PLANE('',#865);
#867 = ADVANCED_FACE('',(#863),#866,.T.);
#868 = CLOSED_SHELL('',(#817,#827,#837,#847,#857,#867));
#869 = MANIFOLD_SOLID_BREP('top rail depth 620',#868);
#870 = ADVANCED_BREP_SHAPE_REPRESENTATION('',(#21,#127,#233,#339,#445,#551,#657,#763,#869),#13);
#871 = SHAPE_DEFINITION_REPRESENTATION(#8,#870);
ENDSEC;
END-ISO-10303-21;
